<svg width="101" height="101" viewBox="0 0 101 101" fill="none" xmlns="http://www.w3.org/2000/svg">
<path d="M50.6025 0.48053C49.7025 0.50126 48.8031 0.546307 47.9055 0.615601C47.8865 4.4761 47.8465 8.17003 47.7531 11.4816C48.4127 11.4339 49.0751 11.4039 49.7422 11.386C49.6334 13.6578 49.6199 16.6509 49.6353 19.8735C48.8669 19.8975 48.1053 19.9405 47.3521 20.0187C46.9314 25.8589 46.2305 29.5765 45.0825 29.8838C43.9352 30.1915 41.4682 27.3168 38.1788 22.462C37.4788 22.7715 36.7999 23.1154 36.1285 23.4743C34.5339 20.6809 33.0347 18.1159 31.8062 16.204C32.3859 15.8843 32.9719 15.5729 33.5697 15.2822C31.8334 12.4561 29.9504 9.2778 28.0016 5.9389C26.3953 6.75086 24.834 7.649 23.3245 8.62933C25.2435 11.9918 27.0591 15.2199 28.6401 18.1405C29.1894 17.7668 29.7492 17.4118 30.3176 17.0659C31.3559 19.0819 32.834 21.6699 34.4512 24.4406C33.8026 24.843 33.1632 25.26 32.5477 25.7087C35.1098 30.987 36.365 34.5627 35.525 35.4034C34.6832 36.2441 31.1084 34.9882 25.829 32.4265C25.3828 33.04 24.9647 33.6775 24.5638 34.3249C21.7876 32.7028 19.2133 31.2367 17.1904 30.1931C17.5351 29.6273 17.8912 29.067 18.2625 28.5201C15.3305 26.9331 12.1032 25.1198 8.72504 23.1915C7.73961 24.6955 6.83604 26.2516 6.01825 27.8529C9.37235 29.8107 12.5675 31.7039 15.4039 33.4476C15.695 32.8493 16.0054 32.2635 16.3253 31.6828C18.2337 32.9098 20.8094 34.4127 23.5975 36.0043C23.2376 36.6762 22.895 37.3573 22.5854 38.0581C27.4392 41.3471 30.3145 43.8137 30.007 44.9609C29.6998 46.1091 25.982 46.8098 20.1397 47.2306C20.0627 47.9835 20.0192 48.7456 19.9954 49.5138C19.5359 49.5138 19.0299 49.5028 18.5836 49.5028C15.8883 49.5028 13.4553 49.5278 11.5075 49.6221C11.5255 48.9549 11.5545 48.2919 11.6005 47.6319C8.27822 47.7209 4.57183 47.7638 0.696533 47.7839C0.640979 48.6812 0.60964 49.5798 0.602539 50.4787C0.622945 51.3794 0.667711 52.2795 0.736755 53.1778C4.59786 53.1968 8.29132 53.2368 11.6027 53.3298C11.5557 52.6704 11.5267 52.0079 11.5097 51.3409C13.7823 51.4497 16.7754 51.4631 19.9977 51.4476C20.0217 52.2161 20.0627 52.9781 20.1419 53.7309C25.9842 54.1516 29.702 54.851 30.0092 55.9992C30.3167 57.1464 27.4415 59.6149 22.5877 62.9042C22.8973 63.6049 23.2398 64.2849 23.5997 64.9569C20.8116 66.5487 18.2359 68.0516 16.3275 69.2781C16.0076 68.6976 15.6973 68.1117 15.4061 67.5133C12.5825 69.2484 9.40162 71.1327 6.06592 73.0801C6.87694 74.6864 7.77407 76.2477 8.75342 77.7572C12.1168 75.8383 15.3444 74.0225 18.2646 72.4416C17.8927 71.8929 17.5365 71.3331 17.1914 70.7655C19.2072 69.7271 21.7946 68.2489 24.5637 66.6318C24.9659 67.2804 25.3848 67.9199 25.8325 68.5353C31.111 65.9733 34.6854 64.718 35.5272 65.5579C36.3672 66.3986 35.112 69.9754 32.5499 75.254C33.1649 75.7019 33.804 76.1197 34.4521 76.5216C32.8355 79.2898 31.358 81.8771 30.3197 83.8925C29.752 83.5476 29.1923 83.1924 28.6436 82.8202C27.0589 85.7478 25.2384 88.9833 23.3143 92.3555C24.8187 93.3414 26.3752 94.2454 27.9771 95.0636C29.9358 91.7095 31.8292 88.5142 33.572 85.6779C32.9742 85.387 32.3884 85.0771 31.8083 84.7577C33.0347 82.8497 34.5369 80.2743 36.1282 77.4867C36.8003 77.8466 37.4806 78.1893 38.1812 78.4988C41.4705 73.645 43.9374 70.7684 45.0847 71.076C46.2327 71.3833 46.9335 75.1021 47.3542 80.9433C48.1075 81.0203 48.8691 81.0648 49.6375 81.0888C49.6215 84.3105 49.6375 87.3022 49.7444 89.5743C49.0773 89.5563 48.4148 89.5273 47.7553 89.4803C47.8443 92.8021 47.8872 96.5083 47.9078 100.383C48.8058 100.439 49.7051 100.471 50.6047 100.478C51.5049 100.458 52.4044 100.413 53.3021 100.344C53.3211 96.4826 53.3611 92.7884 53.4545 89.477C52.7943 89.524 52.1317 89.554 51.4642 89.572C51.573 87.2999 51.5865 84.3078 51.5712 81.0865C52.3396 81.0625 53.1021 81.0195 53.8557 80.941C54.2765 75.0998 54.9759 71.381 56.1239 71.0737C57.2711 70.7661 59.74 73.642 63.0289 78.4953C63.7287 78.186 64.4076 77.8439 65.0791 77.4844C66.6706 80.2721 68.1741 82.8473 69.4003 84.7554C68.8197 85.0747 68.2359 85.3847 67.6381 85.6756C69.3732 88.4992 71.2574 91.6802 73.2047 95.0156C74.811 94.2043 76.3724 93.3068 77.882 92.3271C75.9633 88.9653 74.1472 85.7383 72.5663 82.8172C72.0167 83.1908 71.4562 83.5474 70.8876 83.8927C69.8495 81.8772 68.3722 79.2894 66.7553 76.5205C67.404 76.1186 68.0447 75.6998 68.66 75.2517C66.0979 69.973 64.8416 66.3963 65.6815 65.5556C66.5221 64.7157 70.0988 65.971 75.3774 68.533C75.825 67.918 76.2431 67.2789 76.6451 66.6307C79.4145 68.2482 82.0026 69.7248 84.0184 70.7632C83.6732 71.3314 83.3176 71.8913 82.9453 72.4405C85.8721 74.025 89.1073 75.8448 92.479 77.7686C93.4654 76.2634 94.3699 74.7061 95.1884 73.1034C91.8349 71.1463 88.6397 69.2536 85.804 67.511C85.513 68.1089 85.2019 68.6941 84.8824 69.2745C82.9742 68.0482 80.3983 66.5451 77.6102 64.9534C77.9699 64.2818 78.3129 63.6021 78.6223 62.9019C73.7685 59.6126 70.8932 57.1441 71.2007 55.9969C71.5079 54.8488 75.2255 54.1493 81.0668 53.7286C81.1438 52.9758 81.187 52.2138 81.2111 51.4453C84.4341 51.4613 87.4276 51.4462 89.7003 51.3373C89.6823 52.0047 89.6532 52.6677 89.6072 53.3275C92.9285 53.2385 96.6344 53.1956 100.509 53.1754C100.565 52.2767 100.597 51.3766 100.604 50.4762C100.584 49.577 100.539 48.6784 100.47 47.7816C96.6093 47.7626 92.9163 47.7226 89.6058 47.6296C89.6528 48.2897 89.6819 48.9526 89.6989 49.6198C87.7509 49.5288 85.3176 49.4961 82.6215 49.5005C82.1752 49.5013 81.6692 49.5105 81.2097 49.5115C81.1857 48.7433 81.1446 47.9812 81.0653 47.2283C75.2241 46.8075 71.5065 46.1067 71.1993 44.9586C70.8918 43.8114 73.767 41.3448 78.6208 38.0558C78.3114 37.3555 77.9685 36.6747 77.6088 36.0033C80.3963 34.412 82.9717 32.9086 84.8799 31.6818C85.1996 32.2625 85.5114 32.8482 85.8026 33.4466C88.6261 31.7107 91.8071 29.8269 95.1425 27.8786C94.3319 26.273 93.4352 24.7122 92.4564 23.2032C89.0876 25.1258 85.8685 26.9348 82.9438 28.5178C83.3152 29.0648 83.67 29.6247 84.0145 30.1908C81.992 31.2343 79.4171 32.7006 76.6411 34.3226C76.2403 33.6752 75.8236 33.0377 75.3773 32.4241C70.0979 34.9859 66.5207 36.2417 65.6799 35.401C64.84 34.5602 66.0961 30.9841 68.6586 25.7051C68.0433 25.2565 67.4026 24.839 66.7539 24.437C68.371 21.6667 69.8494 19.0794 70.8875 17.0636C71.4556 17.4095 72.0157 17.7645 72.5649 18.1382C74.1497 15.2104 75.9701 11.9743 77.8943 8.60284C76.3895 7.61682 74.8326 6.71273 73.2303 5.89453C71.2719 9.24933 69.3802 12.4416 67.6367 15.2798C68.2346 15.5705 68.8182 15.8819 69.3989 16.2016C68.1703 18.1135 66.6701 20.6785 65.0753 23.4719C64.4046 23.1137 63.7265 22.77 63.0275 22.4609C59.7386 27.3151 57.2698 30.1891 56.1226 29.8814C54.9746 29.574 54.2749 25.8566 53.8542 20.0163C53.1006 19.9373 52.3382 19.8957 51.5698 19.871C51.5858 16.6485 51.5698 13.6554 51.4628 11.3835C52.1303 11.4017 52.7929 11.4322 53.4531 11.4804C53.3641 8.15751 53.3212 4.45054 53.3007 0.575439C52.4026 0.518871 51.5032 0.486535 50.6033 0.478516L50.6025 0.48053ZM49.7036 35.2186C49.6936 36.0771 49.6926 36.9845 49.6726 37.7485C49.98 37.7265 50.2888 37.7115 50.6024 37.7115C50.9164 37.7115 51.2261 37.7275 51.5336 37.7485C51.5126 36.9881 51.5106 36.0855 51.5026 35.2313C53.5735 35.3536 55.5978 35.896 57.4525 36.8254C57.0178 37.5621 56.5639 38.3407 56.1649 38.9899C56.7261 39.2625 57.2629 39.5748 57.774 39.9233C58.1384 39.2513 58.5886 38.4643 59.0098 37.7167C60.7448 38.8578 62.2292 40.3403 63.3726 42.0737C62.6196 42.4985 61.8394 42.9452 61.1625 43.3116C61.5101 43.8226 61.824 44.3595 62.0952 44.9208C62.7475 44.5204 63.5331 44.0632 64.2717 43.627C65.2024 45.4834 65.7453 47.5099 65.8672 49.5829C65.0076 49.5729 64.1009 49.5719 63.3378 49.5519C63.3608 49.8593 63.3738 50.168 63.3738 50.4827C63.3738 50.7955 63.3588 51.1056 63.3378 51.413C64.0969 51.392 65.0001 51.39 65.8547 51.382C65.7321 53.4522 65.1897 55.4759 64.2606 57.33C63.5262 56.8962 62.7441 56.4421 62.0952 56.0438C61.8239 56.6051 61.5102 57.1419 61.1625 57.6531C61.8347 58.0172 62.6202 58.4676 63.3676 58.8904C62.2262 60.6234 60.7442 62.1059 59.0117 63.2479C58.5897 62.5008 58.1385 61.7143 57.774 61.0414C57.2629 61.3903 56.7261 61.7029 56.1649 61.9741C56.5652 62.6262 57.0226 63.4107 57.4586 64.1492C55.6021 65.0795 53.5756 65.6219 51.5026 65.7435C51.5126 64.8846 51.5136 63.9779 51.5336 63.2153C51.2261 63.2383 50.9164 63.2513 50.6024 63.2513C50.2888 63.2513 49.98 63.2363 49.6726 63.2153C49.6936 63.9742 49.6956 64.8767 49.7036 65.7311C47.6332 65.6089 45.6094 65.0669 43.755 64.1381C44.1886 63.4039 44.6431 62.6229 45.0413 61.9741C44.4802 61.703 43.9429 61.3902 43.432 61.0414C43.068 61.7136 42.6173 62.4991 42.1951 63.2452C40.4623 62.1047 38.9796 60.6235 37.8372 58.8918C38.5842 58.4685 39.3709 58.0175 40.0438 57.6531C39.6961 57.142 39.3822 56.605 39.1108 56.0438C38.4586 56.4443 37.6732 56.9 36.9344 57.3362C36.0044 55.4802 35.462 53.4544 35.3401 51.382C36.1995 51.392 37.1067 51.393 37.8696 51.413C37.8466 51.1056 37.8336 50.7955 37.8336 50.4827C37.8336 50.168 37.8486 49.8593 37.8696 49.5519C37.1105 49.5729 36.2073 49.5749 35.3527 49.5829C35.4747 47.5122 36.0167 45.4879 36.9456 43.6332C37.6803 44.0682 38.4618 44.5212 39.1108 44.9196C39.3821 44.3585 39.6962 43.8225 40.0438 43.3116C39.3679 42.9457 38.5879 42.5005 37.8372 42.0764C38.9783 40.3416 40.4606 38.8574 42.1939 37.7142C42.6168 38.4628 43.0673 39.2506 43.432 39.9233C43.943 39.5748 44.4802 39.2625 45.0413 38.9899C44.6401 38.3373 44.1847 37.5551 43.7476 36.814C45.604 35.8833 47.6305 35.3405 49.7036 35.2186ZM50.6008 40.4797C50.243 40.4797 49.8887 40.4988 49.541 40.5358C49.4031 42.4425 49.1739 43.6569 48.799 43.7573C48.4254 43.8553 47.6204 42.9188 46.5461 41.334C45.8922 41.6227 45.2769 41.978 44.7083 42.3934C45.5438 44.1161 45.9534 45.2841 45.6785 45.5591C45.4053 45.8338 44.2372 45.4221 42.5143 44.5856C42.0995 45.1559 41.743 45.7718 41.4541 46.4244C43.0393 47.4979 43.9772 48.3042 43.8768 48.6794C43.7788 49.0544 42.5639 49.2817 40.6571 49.4186C40.6221 49.7681 40.6021 50.1205 40.6021 50.4799C40.6021 50.839 40.6221 51.1929 40.6571 51.5425C42.5639 51.6793 43.7764 51.9065 43.8768 52.2814C43.9748 52.6567 43.0393 53.4631 41.4541 54.5366C41.743 55.1893 42.1005 55.8048 42.5155 56.3752C44.2383 55.5392 45.4054 55.1271 45.6785 55.4019C45.9534 55.6769 45.5438 56.845 44.7083 58.5679C45.2769 58.9829 45.8924 59.3398 46.5461 59.6276C47.6204 58.0439 48.4254 57.1032 48.799 57.2036C49.1739 57.3016 49.4031 58.5181 49.541 60.4247C49.8887 60.4597 50.243 60.4797 50.6008 60.4797C50.9599 60.4797 51.3154 60.4607 51.6632 60.4247C51.7999 58.5181 52.0291 57.304 52.4025 57.2036C52.7776 57.1056 53.5839 58.0427 54.658 59.6263C55.3105 59.3386 55.9274 58.9828 56.496 58.5679C55.6603 56.845 55.2496 55.6769 55.5247 55.4019C55.7977 55.1271 56.966 55.5392 58.6887 56.3752C59.1037 55.8048 59.4598 55.1893 59.7488 54.5366C58.1635 53.4631 57.2257 52.6567 57.3261 52.2814C57.4241 51.9065 58.6406 51.6793 60.5471 51.5425C60.5831 51.1929 60.6011 50.839 60.6011 50.4799C60.6011 50.1205 60.5821 49.7681 60.5471 49.4186C58.6407 49.2817 57.4265 49.0544 57.3261 48.6794C57.2281 48.3042 58.1635 47.4979 59.7488 46.4244C59.4598 45.7717 59.1036 45.156 58.6887 44.5856C56.9656 45.4221 55.7977 45.8338 55.5247 45.5591C55.2496 45.2841 55.6602 44.1164 56.496 42.3934C55.9274 41.9781 55.3105 41.6226 54.658 41.334C53.5839 42.9186 52.7776 43.8577 52.4025 43.7573C52.0291 43.6593 51.7999 42.4425 51.6632 40.5358C51.3154 40.4998 50.9599 40.4797 50.6008 40.4797ZM50.6008 45.488C51.2566 45.4879 51.9059 45.6169 52.5117 45.8678C53.1176 46.1187 53.6681 46.4864 54.1318 46.95C54.5955 47.4136 54.9633 47.964 55.2143 48.5698C55.4653 49.1756 55.5944 49.8249 55.5944 50.4807C55.5943 51.1363 55.4651 51.7855 55.2141 52.3912C54.963 52.9969 54.5952 53.5473 54.1315 54.0109C53.6678 54.4744 53.1173 54.8421 52.5115 55.0929C51.9057 55.3437 51.2565 55.4728 50.6008 55.4727C49.2771 55.4722 48.0078 54.9461 47.0718 54.0099C46.1359 53.0738 45.61 51.8044 45.6098 50.4807C45.6098 49.1568 46.1357 47.8872 47.0716 46.9509C48.0075 46.0147 49.277 45.4885 50.6008 45.488Z" fill="white"/>
</svg>
