<svg width="56" height="56" viewBox="0 0 56 56" fill="none" xmlns="http://www.w3.org/2000/svg">
<path d="M23.8287 32.1714C25.0417 33.3251 25.0417 35.2184 23.8287 36.3722C22.675 37.5259 20.7817 37.5259 19.6279 36.3722C13.8592 30.6034 13.8592 21.2255 19.6279 15.4568L30.1004 4.98428C35.8692 -0.784472 45.2471 -0.784472 51.0158 4.98428C56.7846 10.753 56.7846 20.1309 51.0158 25.8997L46.6079 30.3076C46.6375 27.8818 46.2529 25.4559 45.4246 23.1484L46.815 21.7284C50.3058 18.2672 50.3058 12.6464 46.815 9.18511C43.3537 5.69428 37.7329 5.69428 34.2717 9.18511L23.8287 19.628C20.3379 23.0893 20.3379 28.7101 23.8287 32.1714ZM32.1712 19.628C33.325 18.4743 35.2183 18.4743 36.3721 19.628C42.1408 25.3968 42.1408 34.7747 36.3721 40.5434L25.8996 51.0159C20.1308 56.7847 10.7529 56.7847 4.98416 51.0159C-0.784595 45.2472 -0.784595 35.8693 4.98416 30.1005L9.39207 25.6926C9.36249 28.1184 9.74707 30.5443 10.5754 32.8814L9.18499 34.2718C5.69416 37.733 5.69416 43.3539 9.18499 46.8151C12.6462 50.3059 18.2671 50.3059 21.7283 46.8151L32.1712 36.3722C35.6621 32.9109 35.6621 27.2901 32.1712 23.8289C30.9583 22.6751 30.9583 20.7818 32.1712 19.628Z" fill="white"/>
</svg>
