<svg width="100" height="100" viewBox="0 0 100 100" fill="none" xmlns="http://www.w3.org/2000/svg">
<rect width="100" height="100" rx="50" fill="white"/>
<path d="M45.8287 54.1714C47.0417 55.3251 47.0417 57.2184 45.8287 58.3722C44.675 59.5259 42.7817 59.5259 41.6279 58.3722C35.8592 52.6034 35.8592 43.2255 41.6279 37.4568L52.1004 26.9843C57.8692 21.2155 67.2471 21.2155 73.0158 26.9843C78.7846 32.753 78.7846 42.1309 73.0158 47.8997L68.6079 52.3076C68.6375 49.8818 68.2529 47.4559 67.4246 45.1484L68.815 43.7284C72.3058 40.2672 72.3058 34.6464 68.815 31.1851C65.3537 27.6943 59.7329 27.6943 56.2717 31.1851L45.8287 41.628C42.3379 45.0893 42.3379 50.7101 45.8287 54.1714ZM54.1712 41.628C55.325 40.4743 57.2183 40.4743 58.3721 41.628C64.1408 47.3968 64.1408 56.7747 58.3721 62.5434L47.8996 73.0159C42.1308 78.7847 32.7529 78.7847 26.9842 73.0159C21.2154 67.2472 21.2154 57.8693 26.9842 52.1005L31.3921 47.6926C31.3625 50.1184 31.7471 52.5443 32.5754 54.8814L31.185 56.2718C27.6942 59.733 27.6942 65.3539 31.185 68.8151C34.6462 72.3059 40.2671 72.3059 43.7283 68.8151L54.1712 58.3722C57.6621 54.9109 57.6621 49.2901 54.1712 45.8289C52.9583 44.6751 52.9583 42.7818 54.1712 41.628Z" fill="black"/>
</svg>
